HIERARCHY
ROOT Hips
{
	OFFSET 0.000000 0.000000 0.000000
	CHANNELS 6 Xposition Yposition Zposition Zrotation Yrotation Xrotation 
	JOINT LHipJoint
	{
		OFFSET 0.000000 0.000000 0.000000
		CHANNELS 3 Zrotation Yrotation Xrotation
		JOINT LeftUpLeg
		{
			OFFSET 1.363060 -1.794630 0.839290
			CHANNELS 3 Zrotation Yrotation Xrotation
			JOINT LeftLeg
			{
				OFFSET 2.448110 -6.726130 0.000000
				CHANNELS 3 Zrotation Yrotation Xrotation
				JOINT LeftFoot
				{
					OFFSET 2.562200 -7.039590 0.000000
					CHANNELS 3 Zrotation Yrotation Xrotation
					JOINT LeftToeBase
					{
						OFFSET 0.157640 -0.433110 2.322550
						CHANNELS 3 Zrotation Yrotation Xrotation
						End Site
						{
							OFFSET 0.000000 0.000000 0.000000
						}
					}
				}
			}
		}
	}
	JOINT RHipJoint
	{
		OFFSET 0.000000 0.000000 0.000000
		CHANNELS 3 Zrotation Yrotation Xrotation
		JOINT RightUpLeg
		{
			OFFSET -1.305520 -1.794630 0.839290
			CHANNELS 3 Zrotation Yrotation Xrotation
			JOINT RightLeg
			{
				OFFSET -2.542530 -6.985550 0.000000
				CHANNELS 3 Zrotation Yrotation Xrotation
				JOINT RightFoot
				{
					OFFSET -2.568260 -7.056230 0.000000
					CHANNELS 3 Zrotation Yrotation Xrotation
					JOINT RightToeBase
					{
						OFFSET -0.164730 -0.452590 2.363150
						CHANNELS 3 Zrotation Yrotation Xrotation
						End Site
						{
							OFFSET 0.000000 0.000000 0.000000
						}
					}
				}
			}
		}
	}
}
MOTION
Frames: 22
Frame Time: 0.008333
5.092312 16.719602 -5.572209 -175.742695 29.379685 -177.761488 -11.540161 4.819299 1.009951 -9.921551 0.569603 18.300373 -1.126418 2.519101 23.120692 -0.097333 -6.170876 10.629807 -1.736900 0.000000 -54.854001 7.859480 -1.215779 1.785163 11.437758 2.608752 -25.775173 2.496321 -1.654946 25.205257 0.258033 2.577101 0.503304 0.063400 0.000001 -46.037001
5.182299 16.727101 -5.714286 -175.719410 28.534606 -177.941248 -11.694627 4.930528 1.007136 -8.959260 1.094503 17.579256 -0.967998 2.636153 24.892322 -0.069318 -7.331457 12.494656 -2.318400 -0.000000 -54.838900 7.886975 -1.291937 1.700752 11.423814 2.186431 -25.385727 2.410199 -1.722212 26.118342 0.165779 2.079491 0.070868 -0.009200 -0.000001 -43.814001
5.269985 16.735862 -5.854034 -175.657735 27.689475 -178.101151 -11.863228 5.032536 0.990027 -7.888432 1.718660 16.696748 -0.799415 2.740253 26.825724 -0.014312 -8.521143 14.391871 -2.987900 0.000000 -53.991699 7.901282 -1.368653 1.610180 11.475529 1.727286 -24.908543 2.347081 -1.766915 26.859350 0.060071 1.509124 -0.521827 -0.087000 0.000000 -41.431800
5.355547 16.745462 -5.990999 -175.574091 26.844260 -178.245533 -12.035246 5.119213 0.961716 -6.770598 2.391704 15.684979 -0.629220 2.829645 28.885058 0.066849 -9.633752 16.240276 -3.696900 0.000000 -52.468600 7.904998 -1.443188 1.515163 11.572828 1.246950 -24.351606 2.305461 -1.791252 27.435436 -0.053943 0.907945 -1.254714 -0.157700 0.000000 -38.987200
5.438969 16.755675 -6.124997 -175.474012 25.996842 -178.373269 -12.207343 5.187194 0.921444 -5.632027 3.099173 14.545252 -0.459548 2.905782 31.064420 0.173420 -10.560873 18.018906 -4.390800 -0.000000 -50.407300 7.898325 -1.514414 1.420748 11.705145 0.773524 -23.722020 2.282945 -1.797096 27.852757 -0.173464 0.298212 -2.095422 -0.213700 -0.000000 -36.548400
5.520233 16.766247 -6.255966 -175.367922 25.144861 -178.486071 -12.374232 5.233369 0.870225 -4.512717 3.814653 13.292355 -0.293587 2.971049 33.341354 0.301435 -11.186613 19.689665 -4.995500 0.000000 -48.039300 7.883291 -1.580881 1.329780 11.856986 0.323486 -23.032244 2.275444 -1.787074 28.127221 -0.295705 -0.300540 -3.005086 -0.250000 0.000000 -34.211400
5.599303 16.777006 -6.383888 -175.267292 24.286581 -178.587890 -12.530727 5.255622 0.809822 -3.454098 4.511280 11.945904 -0.133404 3.028612 35.686503 0.446172 -11.405555 21.220436 -5.431700 0.000000 -45.718300 7.863191 -1.641303 1.243834 12.011406 -0.093937 -22.296876 2.277706 -1.764371 28.280212 -0.418400 -0.876893 -3.939342 -0.265001 0.000000 -32.102200
5.676124 16.787873 -6.508907 -175.181559 23.421139 -178.682334 -12.673526 5.253243 0.741650 -2.487884 5.171061 10.522343 0.020054 3.081956 38.074939 0.602739 -11.136733 22.564454 -5.622100 0.000000 -43.610600 7.841152 -1.694851 1.163732 12.153763 -0.474978 -21.530363 2.284681 -1.732022 28.334320 -0.540114 -1.427786 -4.860130 -0.260500 -0.000000 -30.291700
5.750754 16.798867 -6.631212 -175.121107 22.549616 -178.775096 -12.799397 5.226448 0.667516 -1.643555 5.778161 9.041672 0.166504 3.134032 40.475392 0.767420 -10.334682 23.677183 -5.509100 -0.000000 -41.954000 7.821369 -1.740892 1.088759 12.268319 -0.823123 -20.745684 2.291190 -1.693243 28.312798 -0.659898 -1.956120 -5.732507 -0.240200 -0.000000 -28.868200
5.823117 16.810098 -6.751055 -175.091617 21.674261 -178.870176 -12.907143 5.176745 0.588507 -0.936750 6.327705 7.519359 0.306247 3.187351 42.862105 0.937143 -8.996641 24.499174 -5.062801 0.000000 -40.768700 7.806839 -1.779422 1.017907 12.344696 -1.144652 -19.952647 2.293506 -1.650565 28.235119 -0.777702 -2.469664 -6.535798 -0.208300 -0.000000 -27.830400
5.893311 16.821754 -6.868666 -175.098301 20.799586 -178.972691 -12.995510 5.106513 0.505335 -0.377645 6.819903 5.971249 0.439533 3.243711 45.206941 1.109215 -7.166978 24.971551 -4.294300 0.000000 -40.014000 7.800862 -1.810632 0.949378 12.373597 -1.449898 -19.157579 2.288763 -1.606141 28.116651 -0.893726 -2.976942 -7.257249 -0.169000 0.000000 -27.169600
5.961445 16.834044 -6.984323 -175.142579 19.930364 -179.085142 -13.064502 5.018977 0.418461 0.033767 7.260745 4.409295 0.566642 3.304237 47.484395 1.280720 -4.934213 25.039128 -3.257400 0.000000 -39.535000 7.805223 -1.835195 0.881665 12.350981 -1.748870 -18.363267 2.275794 -1.561192 27.966048 -1.008606 -3.486035 -7.896160 -0.125001 -0.000000 -26.817300
6.027745 16.847169 -7.098203 -175.227693 19.072544 -179.211714 -13.113096 4.918072 0.328024 0.297827 7.657813 2.846972 0.687255 3.369354 49.667515 1.447976 -2.425728 24.666419 -2.045300 0.000000 -39.154100 7.822493 -1.853502 0.812590 12.271457 -2.054358 -17.569097 2.254206 -1.516551 27.788415 -1.122487 -3.999759 -8.458909 -0.078400 -0.000000 -26.700500
6.092245 16.861325 -7.210704 -175.344056 18.231293 -179.346605 -13.144091 4.807435 0.234944 0.433322 8.022414 1.285395 0.801009 3.438550 51.736876 1.606664 0.210001 23.834008 -0.774800 0.000000 -38.653500 7.850005 -1.867466 0.743599 12.146792 -2.364289 -16.771571 2.225717 -1.471356 27.573301 -1.237281 -4.529164 -8.953266 -0.030500 0.000000 -26.725001
6.155400 16.876643 -7.321805 -175.497412 17.412543 -179.494754 -13.155184 4.691297 0.139409 0.439454 8.360894 -0.261195 0.905990 3.510449 53.666624 1.751910 2.816598 22.567820 0.431200 -0.000000 -37.915000 7.891068 -1.876816 0.672217 11.969690 -2.691310 -15.966750 2.191180 -1.425856 27.321304 -1.351524 -5.063730 -9.394009 0.018900 -0.000000 -26.816600
6.217423 16.893154 -7.431769 -175.681805 16.621057 -179.651912 -13.147795 4.572845 0.042425 0.331109 8.681772 -1.790103 0.999986 3.582759 55.439696 1.879047 5.255473 20.914437 1.468200 0.000000 -36.836000 7.944043 -1.882614 0.599667 11.748675 -3.031804 -15.149062 2.152793 -1.378957 27.020581 -1.465398 -5.602019 -9.792403 0.069800 -0.000000 -26.902300
6.278572 16.910827 -7.540742 -175.893351 15.861572 -179.814612 -13.122616 4.454576 -0.055103 0.119994 8.991351 -3.297360 1.080000 3.652645 57.041013 1.984136 7.418931 18.947321 2.265500 0.000000 -35.393301 8.008001 -1.885375 0.526908 11.490392 -3.381015 -14.313855 2.112553 -1.329817 26.662179 -1.578033 -6.136433 -10.158873 0.122400 0.000000 -26.925500
6.339053 16.929504 -7.648854 -176.127442 15.137442 -179.979534 -13.080836 4.338083 -0.152242 -0.181038 9.294999 -4.780324 1.142868 3.717223 58.460261 2.064301 9.238311 16.751361 2.791901 0.000000 -33.604500 8.081363 -1.885617 0.455402 11.202924 -3.730971 -13.456819 2.072259 -1.277615 26.237998 -1.688355 -6.658677 -10.501167 0.176900 0.000000 -26.849900
6.399020 16.949021 -7.756228 -176.379607 14.450945 179.856935 -13.023907 4.224392 -0.248132 -0.560119 9.596828 -6.236845 1.185619 3.774066 59.691245 2.118008 10.683810 14.411639 3.053600 -0.000001 -31.490800 8.162348 -1.883749 0.386477 10.894248 -4.073557 -12.575223 2.033233 -1.221708 25.742680 -1.794927 -7.159735 -10.822911 0.232900 0.000000 -26.656499
6.458495 16.968986 -7.863054 -176.643291 13.806582 179.697985 -12.953489 4.112761 -0.343555 -1.002823 9.903796 -7.662756 1.206236 3.820842 60.728638 2.146444 11.763722 12.023369 3.088200 0.000001 -29.269400 8.248848 -1.880336 0.321852 10.574159 -4.393538 -11.666480 1.996417 -1.162138 25.175311 -1.896788 -7.633659 -11.125949 0.289700 0.000000 -26.353000
6.517477 16.989170 -7.969514 -176.914618 13.203589 179.546447 -12.871749 4.003555 -0.437448 -1.498606 10.216992 -9.058694 1.203465 3.856787 61.574599 2.151120 12.507409 9.645615 2.944300 0.000000 -26.923400 8.338673 -1.875765 0.262154 10.249663 -4.687153 -10.731969 1.962094 -1.098678 24.537166 -1.992305 -8.073115 -11.406355 0.345700 0.000000 -25.958300
6.575891 17.009188 -8.075761 -177.188712 12.643056 179.403563 -12.780578 3.895889 -0.530317 -2.036247 10.540631 -10.422352 1.177317 3.881269 62.230563 2.136093 12.965935 7.335710 2.678100 -0.000000 -24.577800 8.429922 -1.870598 0.208064 9.927377 -4.946929 -9.772981 1.930125 -1.031824 23.833725 -2.080550 -8.475217 -11.659170 0.399201 -0.000000 -25.512800
